<svg width="527" height="128" viewBox="0 0 527 128" fill="none" xmlns="http://www.w3.org/2000/svg">
<rect x="78" width="112" height="128" fill="#635BFF"/>
<path d="M176 44V51.146L152.75 66.6036L176 83.4802V102.435L134.609 72.2798V71.3169L176 44Z" fill="black"/>
<path d="M92 110.957V103.811L115.25 88.3529L92 71.4763V52.5217L133.391 82.7274V83.6396L92 110.957Z" fill="black"/>
<path d="M462.787 92.1893H480.79C480.894 95.5002 482.135 98.1386 484.515 100.105C486.895 102.07 490.206 103.053 494.448 103.053C499 103.053 502.415 102.226 504.691 100.57C507.071 98.9146 508.261 96.6901 508.261 93.8965C508.261 92.0341 507.64 90.3786 506.398 88.9301C505.157 87.4815 502.829 86.3951 499.414 85.6708L485.601 82.4116C478.669 80.8596 473.496 78.3764 470.081 74.962C466.77 71.4441 465.115 66.6329 465.115 60.5283C465.115 55.5619 466.408 51.268 468.995 47.6466C471.685 44.0253 475.306 41.2834 479.859 39.421C484.411 37.4551 489.637 36.4722 495.534 36.4722C501.225 36.4722 506.243 37.5068 510.589 39.5762C514.934 41.6455 518.297 44.5426 520.677 48.2674C523.16 51.9922 524.453 56.3379 524.557 61.3043H506.553C506.553 57.9934 505.519 55.4067 503.449 53.5443C501.38 51.5784 498.483 50.5954 494.758 50.5954C491.033 50.5954 488.136 51.4232 486.067 53.0787C483.998 54.7341 482.963 56.9587 482.963 59.7523C482.963 63.9944 486.274 66.8915 492.896 68.4435L506.709 71.7028C513.124 73.1513 517.935 75.4793 521.142 78.6868C524.453 81.8943 526.109 86.4468 526.109 92.3445C526.109 97.5178 524.764 102.019 522.074 105.847C519.383 109.572 515.607 112.469 510.744 114.538C505.881 116.504 500.294 117.487 493.982 117.487C484.463 117.487 476.858 115.159 471.168 110.503C465.58 105.847 462.787 99.7424 462.787 92.1893Z" fill="white"/>
<path d="M408.942 38.8003H457.365V54.6308H408.942V38.8003ZM442.62 115.47H423.686V14.8994H442.62V115.47Z" fill="white"/>
<path d="M377.438 115.469V38.8003H396.373V115.469H377.438ZM386.751 23.4354C383.543 23.4354 380.801 22.349 378.525 20.1762C376.352 17.8999 375.266 15.158 375.266 11.9505C375.266 8.74302 376.352 6.05288 378.525 3.88006C380.801 1.70725 383.543 0.62085 386.751 0.62085C389.958 0.62085 392.648 1.70725 394.821 3.88006C397.097 6.05288 398.235 8.74302 398.235 11.9505C398.235 15.158 397.097 17.8999 394.821 20.1762C392.648 22.349 389.958 23.4354 386.751 23.4354Z" fill="white"/>
<path d="M304.385 115.469H285.606V0H304.54V49.9747C307.023 45.629 310.645 42.3181 315.404 40.0418C320.164 37.6621 325.492 36.4722 331.39 36.4722C338.736 36.4722 344.996 38.2311 350.169 41.749C355.446 45.1634 359.481 49.9747 362.275 56.1827C365.172 62.3907 366.621 69.5817 366.621 77.7556C366.621 85.5157 365.12 92.3962 362.12 98.3973C359.119 104.398 354.877 109.106 349.393 112.521C343.909 115.832 337.495 117.487 330.148 117.487C324.458 117.487 319.284 116.245 314.628 113.762C310.076 111.279 306.661 107.865 304.385 103.519V115.469ZM304.695 76.8244C304.695 81.377 305.575 85.4639 307.334 89.0853C309.093 92.6032 311.576 95.3451 314.783 97.3109C318.094 99.1733 321.923 100.105 326.268 100.105C330.717 100.105 334.546 99.1216 337.753 97.1557C340.961 95.1899 343.392 92.448 345.048 88.9301C346.703 85.4122 347.531 81.377 347.531 76.8244C347.531 72.2719 346.703 68.2366 345.048 64.7188C343.392 61.2009 340.961 58.459 337.753 56.4931C334.546 54.4238 330.717 53.3891 326.268 53.3891C321.923 53.3891 318.094 54.4238 314.783 56.4931C311.576 58.459 309.093 61.2009 307.334 64.7188C305.575 68.1332 304.695 72.1684 304.695 76.8244Z" fill="white"/>
<path d="M195.32 76.9797C195.32 69.0127 197.079 62.0286 200.597 56.0275C204.115 49.923 208.978 45.1635 215.186 41.7491C221.394 38.3347 228.43 36.6274 236.293 36.6274C244.26 36.6274 251.296 38.3347 257.4 41.7491C263.608 45.1635 268.471 49.923 271.989 56.0275C275.507 62.0286 277.266 69.0127 277.266 76.9797C277.266 84.9466 275.507 91.9824 271.989 98.087C268.471 104.088 263.608 108.796 257.4 112.21C251.296 115.625 244.26 117.332 236.293 117.332C228.43 117.332 221.394 115.625 215.186 112.21C208.978 108.796 204.115 104.088 200.597 98.087C197.079 91.9824 195.32 84.9466 195.32 76.9797ZM214.255 76.9797C214.255 81.6357 215.186 85.7226 217.048 89.2405C219.014 92.7584 221.601 95.5003 224.808 97.4662C228.119 99.4321 231.947 100.415 236.293 100.415C240.639 100.415 244.467 99.4321 247.778 97.4662C251.089 95.5003 253.676 92.7584 255.538 89.2405C257.4 85.7226 258.332 81.6357 258.332 76.9797C258.332 72.2202 257.4 68.1332 255.538 64.7188C253.676 61.2009 251.089 58.459 247.778 56.4932C244.467 54.5273 240.639 53.5443 236.293 53.5443C231.947 53.5443 228.119 54.5273 224.808 56.4932C221.601 58.459 219.014 61.2009 217.048 64.7188C215.186 68.1332 214.255 72.2202 214.255 76.9797Z" fill="white"/>
<path d="M26.2289 117.487C18.1585 117.487 11.7435 115.314 6.98404 110.969C2.32801 106.519 0 100.725 0 93.5861C0 86.5503 2.43148 80.9631 7.29444 76.8244C12.2609 72.5822 19.2966 70.099 28.4018 69.3747L51.3715 67.5123V65.8051C51.3715 62.2872 50.6989 59.4936 49.3539 57.4243C48.1123 55.2515 46.3016 53.6995 43.9218 52.7682C41.5421 51.7336 38.7485 51.2162 35.541 51.2162C29.9538 51.2162 25.6599 52.3544 22.6593 54.6307C19.6588 56.8035 18.1585 59.9075 18.1585 63.9427H2.01761C2.01761 58.3555 3.41442 53.5443 6.20803 49.509C9.10512 45.3703 13.1403 42.1629 18.3137 39.8866C23.5905 37.6103 29.6434 36.4722 36.4722 36.4722C43.4045 36.4722 49.3539 37.7138 54.3203 40.197C59.2867 42.5767 63.115 46.1981 65.8052 51.061C68.4953 55.8205 69.8404 61.7699 69.8404 68.9091V115.469H51.8371V104.14C50.1816 108.071 46.9741 111.279 42.2146 113.762C37.5586 116.245 32.23 117.487 26.2289 117.487ZM32.2818 103.209C38.1794 103.209 42.8354 101.553 46.2499 98.2421C49.7677 94.9312 51.5267 90.3269 51.5267 84.4292V80.394L35.541 81.6356C29.6434 82.1529 25.4529 83.3946 22.9697 85.3604C20.4865 87.2228 19.2449 89.7061 19.2449 92.8101C19.2449 96.2245 20.383 98.8112 22.6593 100.57C24.9356 102.329 28.1431 103.209 32.2818 103.209Z" fill="white"/>
</svg>
